{
    "asset" : {
        "generator" : "Khronos glTF Blender I/O v1.4.40",
        "version" : "2.0"
    },
    "scene" : 0,
    "scenes" : [
        {
            "name" : "Scene",
            "nodes" : [
                5
            ]
        }
    ],
    "nodes" : [
        {
            "mesh" : 0,
            "name" : "Feet_Left",
            "translation" : [
                -0.2929232120513916,
                0.4754028022289276,
                0.015836596488952637
            ]
        },
        {
            "mesh" : 1,
            "name" : "Feet_Right",
            "translation" : [
                0.2857654094696045,
                0.4754028916358948,
                0.012111170217394829
            ]
        },
        {
            "mesh" : 2,
            "name" : "Hand_Left",
            "translation" : [
                -0.5397458076477051,
                1.5510013103485107,
                0.011550769209861755
            ]
        },
        {
            "mesh" : 3,
            "name" : "Hand_Right",
            "translation" : [
                0.5396742224693298,
                1.5510013103485107,
                0.011550767347216606
            ]
        },
        {
            "mesh" : 4,
            "name" : "Head",
            "rotation" : [
                0.000925340864341706,
                0.009911988861858845,
                -0.0009449337958358228,
                0.999950110912323
            ],
            "translation" : [
                -3.582736098906025e-05,
                1.7031816244125366,
                -0.10123863816261292
            ]
        },
        {
            "children" : [
                0,
                1,
                2,
                3,
                4
            ],
            "mesh" : 5,
            "name" : "Body"
        }
    ],
    "materials" : [
        {
            "doubleSided" : true,
            "name" : "EskimoMaterial.004",
            "pbrMetallicRoughness" : {
                "baseColorTexture" : {
                    "index" : 0,
                    "texCoord" : 0
                },
                "metallicFactor" : 0,
                "roughnessFactor" : 0.5
            }
        },
        {
            "doubleSided" : true,
            "name" : "EskimoMaterial",
            "pbrMetallicRoughness" : {
                "baseColorTexture" : {
                    "index" : 1,
                    "texCoord" : 0
                },
                "metallicFactor" : 0,
                "roughnessFactor" : 0.5
            }
        }
    ],
    "meshes" : [
        {
            "name" : "Cylinder.001",
            "primitives" : [
                {
                    "attributes" : {
                        "POSITION" : 0,
                        "NORMAL" : 1,
                        "TEXCOORD_0" : 2
                    },
                    "indices" : 3,
                    "material" : 0
                }
            ]
        },
        {
            "name" : "Cylinder",
            "primitives" : [
                {
                    "attributes" : {
                        "POSITION" : 4,
                        "NORMAL" : 5,
                        "TEXCOORD_0" : 6
                    },
                    "indices" : 7,
                    "material" : 1
                }
            ]
        },
        {
            "name" : "Cube.008",
            "primitives" : [
                {
                    "attributes" : {
                        "POSITION" : 8,
                        "NORMAL" : 9,
                        "TEXCOORD_0" : 10
                    },
                    "indices" : 11,
                    "material" : 0
                }
            ]
        },
        {
            "name" : "Cube.003",
            "primitives" : [
                {
                    "attributes" : {
                        "POSITION" : 12,
                        "NORMAL" : 13,
                        "TEXCOORD_0" : 14
                    },
                    "indices" : 15,
                    "material" : 1
                }
            ]
        },
        {
            "name" : "Cube.001",
            "primitives" : [
                {
                    "attributes" : {
                        "POSITION" : 16,
                        "NORMAL" : 17,
                        "TEXCOORD_0" : 18
                    },
                    "indices" : 19,
                    "material" : 1
                }
            ]
        },
        {
            "name" : "Cube",
            "primitives" : [
                {
                    "attributes" : {
                        "POSITION" : 20,
                        "NORMAL" : 21,
                        "TEXCOORD_0" : 22
                    },
                    "indices" : 23,
                    "material" : 1
                }
            ]
        }
    ],
    "textures" : [
        {
            "sampler" : 0,
            "source" : 0
        },
        {
            "sampler" : 0,
            "source" : 0
        }
    ],
    "images" : [
        {
            "bufferView" : 4,
            "mimeType" : "image/png",
            "name" : "rewild-64-32x"
        }
    ],
    "accessors" : [
        {
            "bufferView" : 0,
            "componentType" : 5126,
            "count" : 103,
            "max" : [
                0.2235792875289917,
                0,
                0.46316254138946533
            ],
            "min" : [
                -0.22357922792434692,
                -0.47017019987106323,
                -0.23508518934249878
            ],
            "type" : "VEC3"
        },
        {
            "bufferView" : 1,
            "componentType" : 5126,
            "count" : 103,
            "type" : "VEC3"
        },
        {
            "bufferView" : 2,
            "componentType" : 5126,
            "count" : 103,
            "type" : "VEC2"
        },
        {
            "bufferView" : 3,
            "componentType" : 5123,
            "count" : 462,
            "type" : "SCALAR"
        },
        {
            "bufferView" : 5,
            "componentType" : 5126,
            "count" : 100,
            "max" : [
                0.230665385723114,
                2.9802322387695312e-08,
                0.4668879806995392
            ],
            "min" : [
                -0.21649311482906342,
                -0.47017014026641846,
                -0.23135972023010254
            ],
            "type" : "VEC3"
        },
        {
            "bufferView" : 6,
            "componentType" : 5126,
            "count" : 100,
            "type" : "VEC3"
        },
        {
            "bufferView" : 7,
            "componentType" : 5126,
            "count" : 100,
            "type" : "VEC2"
        },
        {
            "bufferView" : 8,
            "componentType" : 5123,
            "count" : 444,
            "type" : "SCALAR"
        },
        {
            "bufferView" : 9,
            "componentType" : 5126,
            "count" : 176,
            "max" : [
                0.23208296298980713,
                0.21895146369934082,
                0.28838351368904114
            ],
            "min" : [
                -0.5043161511421204,
                -0.5582249760627747,
                -0.2858133316040039
            ],
            "type" : "VEC3"
        },
        {
            "bufferView" : 10,
            "componentType" : 5126,
            "count" : 176,
            "type" : "VEC3"
        },
        {
            "bufferView" : 11,
            "componentType" : 5126,
            "count" : 176,
            "type" : "VEC2"
        },
        {
            "bufferView" : 12,
            "componentType" : 5123,
            "count" : 852,
            "type" : "SCALAR"
        },
        {
            "bufferView" : 13,
            "componentType" : 5126,
            "count" : 176,
            "max" : [
                0.5043160915374756,
                0.21895146369934082,
                0.28838351368904114
            ],
            "min" : [
                -0.2320830225944519,
                -0.5582249760627747,
                -0.2858133316040039
            ],
            "type" : "VEC3"
        },
        {
            "bufferView" : 14,
            "componentType" : 5126,
            "count" : 176,
            "type" : "VEC3"
        },
        {
            "bufferView" : 15,
            "componentType" : 5126,
            "count" : 176,
            "type" : "VEC2"
        },
        {
            "bufferView" : 16,
            "componentType" : 5123,
            "count" : 852,
            "type" : "SCALAR"
        },
        {
            "bufferView" : 17,
            "componentType" : 5126,
            "count" : 246,
            "max" : [
                0.6108129620552063,
                1.1738396883010864,
                0.5325331687927246
            ],
            "min" : [
                -0.6108129620552063,
                -0.04778611660003662,
                -0.49373772740364075
            ],
            "type" : "VEC3"
        },
        {
            "bufferView" : 18,
            "componentType" : 5126,
            "count" : 246,
            "type" : "VEC3"
        },
        {
            "bufferView" : 19,
            "componentType" : 5126,
            "count" : 246,
            "type" : "VEC2"
        },
        {
            "bufferView" : 20,
            "componentType" : 5123,
            "count" : 912,
            "type" : "SCALAR"
        },
        {
            "bufferView" : 21,
            "componentType" : 5126,
            "count" : 341,
            "max" : [
                0.6215217709541321,
                1.7322540283203125,
                0.5137664675712585
            ],
            "min" : [
                -0.6215217709541321,
                0.37644436955451965,
                -0.48209333419799805
            ],
            "type" : "VEC3"
        },
        {
            "bufferView" : 22,
            "componentType" : 5126,
            "count" : 341,
            "type" : "VEC3"
        },
        {
            "bufferView" : 23,
            "componentType" : 5126,
            "count" : 341,
            "type" : "VEC2"
        },
        {
            "bufferView" : 24,
            "componentType" : 5123,
            "count" : 972,
            "type" : "SCALAR"
        }
    ],
    "bufferViews" : [
        {
            "buffer" : 0,
            "byteLength" : 1236,
            "byteOffset" : 0
        },
        {
            "buffer" : 0,
            "byteLength" : 1236,
            "byteOffset" : 1236
        },
        {
            "buffer" : 0,
            "byteLength" : 824,
            "byteOffset" : 2472
        },
        {
            "buffer" : 0,
            "byteLength" : 924,
            "byteOffset" : 3296
        },
        {
            "buffer" : 0,
            "byteLength" : 802,
            "byteOffset" : 4220
        },
        {
            "buffer" : 0,
            "byteLength" : 1200,
            "byteOffset" : 5024
        },
        {
            "buffer" : 0,
            "byteLength" : 1200,
            "byteOffset" : 6224
        },
        {
            "buffer" : 0,
            "byteLength" : 800,
            "byteOffset" : 7424
        },
        {
            "buffer" : 0,
            "byteLength" : 888,
            "byteOffset" : 8224
        },
        {
            "buffer" : 0,
            "byteLength" : 2112,
            "byteOffset" : 9112
        },
        {
            "buffer" : 0,
            "byteLength" : 2112,
            "byteOffset" : 11224
        },
        {
            "buffer" : 0,
            "byteLength" : 1408,
            "byteOffset" : 13336
        },
        {
            "buffer" : 0,
            "byteLength" : 1704,
            "byteOffset" : 14744
        },
        {
            "buffer" : 0,
            "byteLength" : 2112,
            "byteOffset" : 16448
        },
        {
            "buffer" : 0,
            "byteLength" : 2112,
            "byteOffset" : 18560
        },
        {
            "buffer" : 0,
            "byteLength" : 1408,
            "byteOffset" : 20672
        },
        {
            "buffer" : 0,
            "byteLength" : 1704,
            "byteOffset" : 22080
        },
        {
            "buffer" : 0,
            "byteLength" : 2952,
            "byteOffset" : 23784
        },
        {
            "buffer" : 0,
            "byteLength" : 2952,
            "byteOffset" : 26736
        },
        {
            "buffer" : 0,
            "byteLength" : 1968,
            "byteOffset" : 29688
        },
        {
            "buffer" : 0,
            "byteLength" : 1824,
            "byteOffset" : 31656
        },
        {
            "buffer" : 0,
            "byteLength" : 4092,
            "byteOffset" : 33480
        },
        {
            "buffer" : 0,
            "byteLength" : 4092,
            "byteOffset" : 37572
        },
        {
            "buffer" : 0,
            "byteLength" : 2728,
            "byteOffset" : 41664
        },
        {
            "buffer" : 0,
            "byteLength" : 1944,
            "byteOffset" : 44392
        }
    ],
    "samplers" : [
        {
            "magFilter" : 9729,
            "minFilter" : 9986
        }
    ],
    "buffers" : [
        {
            "byteLength" : 46336,
            "uri" : "data:application/octet-stream;base64,"
        }
    ]
}
