{
    "asset" : {
        "generator" : "Khronos glTF Blender I/O v1.4.40",
        "version" : "2.0"
    },
    "scene" : 0,
    "scenes" : [
        {
            "name" : "Scene",
            "nodes" : [
                2
            ]
        }
    ],
    "nodes" : [
        {
            "mesh" : 0,
            "name" : "Eye Left",
            "rotation" : [
                -0.7071068286895752,
                0,
                0,
                0.7071067094802856
            ],
            "scale" : [
                -0.029114995151758194,
                -0.02911488153040409,
                -0.029408972710371017
            ],
            "translation" : [
                0.06517387181520462,
                0.1590435951948166,
                0.08932922780513763
            ]
        },
        {
            "mesh" : 1,
            "name" : "Eye Right",
            "rotation" : [
                0.7071068286895752,
                0,
                0,
                0.7071067094802856
            ],
            "scale" : [
                0.029114998877048492,
                0.02911488153040409,
                0.029408972710371017
            ],
            "translation" : [
                -0.07498978078365326,
                0.1590435951948166,
                0.08932922780513763
            ]
        },
        {
            "children" : [
                0,
                1
            ],
            "mesh" : 2,
            "name" : "Body",
            "scale" : [
                1.6667402982711792,
                1.650072693824768,
                1.6667402982711792
            ],
            "translation" : [
                0.005240291357040405,
                0.035012125968933105,
                -0.12418165802955627
            ]
        }
    ],
    "materials" : [
        {
            "doubleSided" : true,
            "name" : "EyeColor",
            "pbrMetallicRoughness" : {
                "metallicFactor" : 0,
                "roughnessFactor" : 0.5
            }
        },
        {
            "doubleSided" : true,
            "name" : "EyeColor2",
            "pbrMetallicRoughness" : {
                "baseColorFactor" : [
                    0.009173188358545303,
                    0.0029924330301582813,
                    0.8000000715255737,
                    1
                ],
                "metallicFactor" : 0,
                "roughnessFactor" : 0.5
            }
        },
        {
            "doubleSided" : true,
            "name" : "'",
            "pbrMetallicRoughness" : {
                "baseColorFactor" : [
                    0,
                    0,
                    0,
                    1
                ],
                "metallicFactor" : 0,
                "roughnessFactor" : 0.5
            }
        },
        {
            "doubleSided" : true,
            "name" : "Casaco",
            "pbrMetallicRoughness" : {
                "baseColorFactor" : [
                    0.2422810047864914,
                    0.09305892139673233,
                    0.04518624022603035,
                    1
                ],
                "metallicFactor" : 0,
                "roughnessFactor" : 0.5
            }
        },
        {
            "doubleSided" : true,
            "name" : "Pele",
            "pbrMetallicRoughness" : {
                "baseColorFactor" : [
                    0.8549929857254028,
                    0.49693289399147034,
                    0.3185468912124634,
                    1
                ],
                "metallicFactor" : 0,
                "roughnessFactor" : 0.5
            }
        },
        {
            "doubleSided" : true,
            "name" : "CasacoBorda",
            "pbrMetallicRoughness" : {
                "baseColorFactor" : [
                    0.800000011920929,
                    0.800000011920929,
                    0.800000011920929,
                    1
                ],
                "metallicFactor" : 0,
                "roughnessFactor" : 0.5
            }
        },
        {
            "doubleSided" : true,
            "name" : "Blue",
            "pbrMetallicRoughness" : {
                "baseColorFactor" : [
                    0.00242818146944046,
                    0.21223077178001404,
                    0.19120174646377563,
                    1
                ],
                "metallicFactor" : 0,
                "roughnessFactor" : 0.5
            }
        }
    ],
    "meshes" : [
        {
            "name" : "Cylinder.003",
            "primitives" : [
                {
                    "attributes" : {
                        "POSITION" : 0,
                        "NORMAL" : 1,
                        "TEXCOORD_0" : 2
                    },
                    "indices" : 3,
                    "material" : 0
                },
                {
                    "attributes" : {
                        "POSITION" : 4,
                        "NORMAL" : 5,
                        "TEXCOORD_0" : 6
                    },
                    "indices" : 7,
                    "material" : 1
                }
            ]
        },
        {
            "name" : "Cylinder.002",
            "primitives" : [
                {
                    "attributes" : {
                        "POSITION" : 8,
                        "NORMAL" : 9,
                        "TEXCOORD_0" : 10
                    },
                    "indices" : 3,
                    "material" : 0
                },
                {
                    "attributes" : {
                        "POSITION" : 11,
                        "NORMAL" : 12,
                        "TEXCOORD_0" : 13
                    },
                    "indices" : 7,
                    "material" : 1
                }
            ]
        },
        {
            "name" : "Cube.001",
            "primitives" : [
                {
                    "attributes" : {
                        "POSITION" : 14,
                        "NORMAL" : 15,
                        "TEXCOORD_0" : 16
                    },
                    "indices" : 17,
                    "material" : 2
                },
                {
                    "attributes" : {
                        "POSITION" : 18,
                        "NORMAL" : 19,
                        "TEXCOORD_0" : 20
                    },
                    "indices" : 21,
                    "material" : 3
                },
                {
                    "attributes" : {
                        "POSITION" : 22,
                        "NORMAL" : 23,
                        "TEXCOORD_0" : 24
                    },
                    "indices" : 25,
                    "material" : 4
                },
                {
                    "attributes" : {
                        "POSITION" : 26,
                        "NORMAL" : 27,
                        "TEXCOORD_0" : 28
                    },
                    "indices" : 29,
                    "material" : 5
                },
                {
                    "attributes" : {
                        "POSITION" : 30,
                        "NORMAL" : 31,
                        "TEXCOORD_0" : 32
                    },
                    "indices" : 33,
                    "material" : 6
                }
            ]
        }
    ],
    "accessors" : [
        {
            "bufferView" : 0,
            "componentType" : 5126,
            "count" : 89,
            "max" : [
                1,
                1,
                1
            ],
            "min" : [
                -1,
                -1,
                -1
            ],
            "type" : "VEC3"
        },
        {
            "bufferView" : 1,
            "componentType" : 5126,
            "count" : 89,
            "type" : "VEC3"
        },
        {
            "bufferView" : 2,
            "componentType" : 5126,
            "count" : 89,
            "type" : "VEC2"
        },
        {
            "bufferView" : 3,
            "componentType" : 5123,
            "count" : 168,
            "type" : "SCALAR"
        },
        {
            "bufferView" : 4,
            "componentType" : 5126,
            "count" : 9,
            "max" : [
                0.7860469818115234,
                0.7117089033126831,
                0.422166109085083
            ],
            "min" : [
                -0.13475348055362701,
                0.7117089033126831,
                -0.49863430857658386
            ],
            "type" : "VEC3"
        },
        {
            "bufferView" : 5,
            "componentType" : 5126,
            "count" : 9,
            "type" : "VEC3"
        },
        {
            "bufferView" : 6,
            "componentType" : 5126,
            "count" : 9,
            "type" : "VEC2"
        },
        {
            "bufferView" : 7,
            "componentType" : 5123,
            "count" : 24,
            "type" : "SCALAR"
        },
        {
            "bufferView" : 8,
            "componentType" : 5126,
            "count" : 89,
            "max" : [
                1,
                1,
                1
            ],
            "min" : [
                -1,
                -1,
                -1
            ],
            "type" : "VEC3"
        },
        {
            "bufferView" : 9,
            "componentType" : 5126,
            "count" : 89,
            "type" : "VEC3"
        },
        {
            "bufferView" : 10,
            "componentType" : 5126,
            "count" : 89,
            "type" : "VEC2"
        },
        {
            "bufferView" : 11,
            "componentType" : 5126,
            "count" : 9,
            "max" : [
                0.7860469818115234,
                0.7117089033126831,
                0.422166109085083
            ],
            "min" : [
                -0.13475348055362701,
                0.7117089033126831,
                -0.49863430857658386
            ],
            "type" : "VEC3"
        },
        {
            "bufferView" : 12,
            "componentType" : 5126,
            "count" : 9,
            "type" : "VEC3"
        },
        {
            "bufferView" : 13,
            "componentType" : 5126,
            "count" : 9,
            "type" : "VEC2"
        },
        {
            "bufferView" : 14,
            "componentType" : 5126,
            "count" : 64,
            "max" : [
                0.14588160812854767,
                0.32035738229751587,
                0.12378184497356415
            ],
            "min" : [
                -0.14475838840007782,
                0.16929641366004944,
                0.10744574666023254
            ],
            "type" : "VEC3"
        },
        {
            "bufferView" : 15,
            "componentType" : 5126,
            "count" : 64,
            "type" : "VEC3"
        },
        {
            "bufferView" : 16,
            "componentType" : 5126,
            "count" : 64,
            "type" : "VEC2"
        },
        {
            "bufferView" : 17,
            "componentType" : 5123,
            "count" : 96,
            "type" : "SCALAR"
        },
        {
            "bufferView" : 18,
            "componentType" : 5126,
            "count" : 1246,
            "max" : [
                0.43357011675834656,
                0.4653446674346924,
                0.15257708728313446
            ],
            "min" : [
                -0.43357011675834656,
                -0.5064141750335693,
                -0.16360756754875183
            ],
            "type" : "VEC3"
        },
        {
            "bufferView" : 19,
            "componentType" : 5126,
            "count" : 1246,
            "type" : "VEC3"
        },
        {
            "bufferView" : 20,
            "componentType" : 5126,
            "count" : 1246,
            "type" : "VEC2"
        },
        {
            "bufferView" : 21,
            "componentType" : 5123,
            "count" : 1944,
            "type" : "SCALAR"
        },
        {
            "bufferView" : 22,
            "componentType" : 5126,
            "count" : 42,
            "max" : [
                0.14588160812854767,
                0.2431492954492569,
                0.10838262736797333
            ],
            "min" : [
                -0.1562267243862152,
                0.018242299556732178,
                0.10744573175907135
            ],
            "type" : "VEC3"
        },
        {
            "bufferView" : 23,
            "componentType" : 5126,
            "count" : 42,
            "type" : "VEC3"
        },
        {
            "bufferView" : 24,
            "componentType" : 5126,
            "count" : 42,
            "type" : "VEC2"
        },
        {
            "bufferView" : 25,
            "componentType" : 5123,
            "count" : 72,
            "type" : "SCALAR"
        },
        {
            "bufferView" : 26,
            "componentType" : 5126,
            "count" : 609,
            "max" : [
                0.43858566880226135,
                0.5064141750335693,
                0.16360756754875183
            ],
            "min" : [
                -0.43858566880226135,
                -0.3791177570819855,
                -0.08256280422210693
            ],
            "type" : "VEC3"
        },
        {
            "bufferView" : 27,
            "componentType" : 5126,
            "count" : 609,
            "type" : "VEC3"
        },
        {
            "bufferView" : 28,
            "componentType" : 5126,
            "count" : 609,
            "type" : "VEC2"
        },
        {
            "bufferView" : 29,
            "componentType" : 5123,
            "count" : 960,
            "type" : "SCALAR"
        },
        {
            "bufferView" : 30,
            "componentType" : 5126,
            "count" : 224,
            "max" : [
                0.48153409361839294,
                -0.19897320866584778,
                0.1221630871295929
            ],
            "min" : [
                -0.48153409361839294,
                -0.34165337681770325,
                -0.07914729416370392
            ],
            "type" : "VEC3"
        },
        {
            "bufferView" : 31,
            "componentType" : 5126,
            "count" : 224,
            "type" : "VEC3"
        },
        {
            "bufferView" : 32,
            "componentType" : 5126,
            "count" : 224,
            "type" : "VEC2"
        },
        {
            "bufferView" : 33,
            "componentType" : 5123,
            "count" : 336,
            "type" : "SCALAR"
        }
    ],
    "bufferViews" : [
        {
            "buffer" : 0,
            "byteLength" : 1068,
            "byteOffset" : 0
        },
        {
            "buffer" : 0,
            "byteLength" : 1068,
            "byteOffset" : 1068
        },
        {
            "buffer" : 0,
            "byteLength" : 712,
            "byteOffset" : 2136
        },
        {
            "buffer" : 0,
            "byteLength" : 336,
            "byteOffset" : 2848
        },
        {
            "buffer" : 0,
            "byteLength" : 108,
            "byteOffset" : 3184
        },
        {
            "buffer" : 0,
            "byteLength" : 108,
            "byteOffset" : 3292
        },
        {
            "buffer" : 0,
            "byteLength" : 72,
            "byteOffset" : 3400
        },
        {
            "buffer" : 0,
            "byteLength" : 48,
            "byteOffset" : 3472
        },
        {
            "buffer" : 0,
            "byteLength" : 1068,
            "byteOffset" : 3520
        },
        {
            "buffer" : 0,
            "byteLength" : 1068,
            "byteOffset" : 4588
        },
        {
            "buffer" : 0,
            "byteLength" : 712,
            "byteOffset" : 5656
        },
        {
            "buffer" : 0,
            "byteLength" : 108,
            "byteOffset" : 6368
        },
        {
            "buffer" : 0,
            "byteLength" : 108,
            "byteOffset" : 6476
        },
        {
            "buffer" : 0,
            "byteLength" : 72,
            "byteOffset" : 6584
        },
        {
            "buffer" : 0,
            "byteLength" : 768,
            "byteOffset" : 6656
        },
        {
            "buffer" : 0,
            "byteLength" : 768,
            "byteOffset" : 7424
        },
        {
            "buffer" : 0,
            "byteLength" : 512,
            "byteOffset" : 8192
        },
        {
            "buffer" : 0,
            "byteLength" : 192,
            "byteOffset" : 8704
        },
        {
            "buffer" : 0,
            "byteLength" : 14952,
            "byteOffset" : 8896
        },
        {
            "buffer" : 0,
            "byteLength" : 14952,
            "byteOffset" : 23848
        },
        {
            "buffer" : 0,
            "byteLength" : 9968,
            "byteOffset" : 38800
        },
        {
            "buffer" : 0,
            "byteLength" : 3888,
            "byteOffset" : 48768
        },
        {
            "buffer" : 0,
            "byteLength" : 504,
            "byteOffset" : 52656
        },
        {
            "buffer" : 0,
            "byteLength" : 504,
            "byteOffset" : 53160
        },
        {
            "buffer" : 0,
            "byteLength" : 336,
            "byteOffset" : 53664
        },
        {
            "buffer" : 0,
            "byteLength" : 144,
            "byteOffset" : 54000
        },
        {
            "buffer" : 0,
            "byteLength" : 7308,
            "byteOffset" : 54144
        },
        {
            "buffer" : 0,
            "byteLength" : 7308,
            "byteOffset" : 61452
        },
        {
            "buffer" : 0,
            "byteLength" : 4872,
            "byteOffset" : 68760
        },
        {
            "buffer" : 0,
            "byteLength" : 1920,
            "byteOffset" : 73632
        },
        {
            "buffer" : 0,
            "byteLength" : 2688,
            "byteOffset" : 75552
        },
        {
            "buffer" : 0,
            "byteLength" : 2688,
            "byteOffset" : 78240
        },
        {
            "buffer" : 0,
            "byteLength" : 1792,
            "byteOffset" : 80928
        },
        {
            "buffer" : 0,
            "byteLength" : 672,
            "byteOffset" : 82720
        }
    ],
    "buffers" : [
        {
            "byteLength" : 83392,
            "uri" : "data:application/octet-stream;base64,"
        }
    ]
}
