{
    "asset" : {
        "generator" : "Khronos glTF Blender I/O v1.4.40",
        "version" : "2.0"
    },
    "scene" : 0,
    "scenes" : [
        {
            "name" : "Scene",
            "nodes" : [
                0
            ]
        }
    ],
    "nodes" : [
        {
            "mesh" : 0,
            "name" : "Cylinder",
            "translation" : [
                -0.030759146437048912,
                0,
                -0.053828492760658264
            ]
        }
    ],
    "materials" : [
        {
            "doubleSided" : true,
            "name" : "UVIceCube",
            "pbrMetallicRoughness" : {
                "baseColorTexture" : {
                    "index" : 0,
                    "texCoord" : 0
                },
                "metallicFactor" : 0,
                "roughnessFactor" : 0.5
            }
        }
    ],
    "meshes" : [
        {
            "name" : "Cylinder",
            "primitives" : [
                {
                    "attributes" : {
                        "POSITION" : 0,
                        "NORMAL" : 1,
                        "TEXCOORD_0" : 2
                    },
                    "indices" : 3,
                    "material" : 0
                }
            ]
        }
    ],
    "textures" : [
        {
            "sampler" : 0,
            "source" : 0
        }
    ],
    "images" : [
        {
            "bufferView" : 4,
            "mimeType" : "image/png",
            "name" : "UVIceCube"
        }
    ],
    "accessors" : [
        {
            "bufferView" : 0,
            "componentType" : 5126,
            "count" : 316,
            "max" : [
                1.0323951244354248,
                0.12292853742837906,
                1.0538257360458374
            ],
            "min" : [
                -0.9676048159599304,
                -0.1770714521408081,
                -0.946174144744873
            ],
            "type" : "VEC3"
        },
        {
            "bufferView" : 1,
            "componentType" : 5126,
            "count" : 316,
            "type" : "VEC3"
        },
        {
            "bufferView" : 2,
            "componentType" : 5126,
            "count" : 316,
            "type" : "VEC2"
        },
        {
            "bufferView" : 3,
            "componentType" : 5123,
            "count" : 474,
            "type" : "SCALAR"
        }
    ],
    "bufferViews" : [
        {
            "buffer" : 0,
            "byteLength" : 3792,
            "byteOffset" : 0
        },
        {
            "buffer" : 0,
            "byteLength" : 3792,
            "byteOffset" : 3792
        },
        {
            "buffer" : 0,
            "byteLength" : 2528,
            "byteOffset" : 7584
        },
        {
            "buffer" : 0,
            "byteLength" : 948,
            "byteOffset" : 10112
        },
        {
            "buffer" : 0,
            "byteLength" : 279915,
            "byteOffset" : 11060
        }
    ],
    "samplers" : [
        {
            "magFilter" : 9729,
            "minFilter" : 9986
        }
    ],
    "buffers" : [
        {
            "byteLength" : 290976,
            "uri" : "data:application/octet-stream;base64,"
        }
    ]
}
